<?xml version="1.0" encoding="UTF-8" standalone="no"?>
<!-- Created with Inkscape (http://www.inkscape.org/) -->

<svg
   xmlns:dc="http://purl.org/dc/elements/1.1/"
   xmlns:cc="http://creativecommons.org/ns#"
   xmlns:rdf="http://www.w3.org/1999/02/22-rdf-syntax-ns#"
   xmlns:svg="http://www.w3.org/2000/svg"
   xmlns="http://www.w3.org/2000/svg"
   xmlns:sodipodi="http://sodipodi.sourceforge.net/DTD/sodipodi-0.dtd"
   xmlns:inkscape="http://www.inkscape.org/namespaces/inkscape"
   width="130.83"
   height="141.98409"
   id="svg2"
   version="1.1"
   inkscape:version="0.48.4 r9939"
   sodipodi:docname="logo.svg"
   inkscape:export-filename="/home/vaerros/projects/bitshift/logo.png"
   inkscape:export-xdpi="68.82"
   inkscape:export-ydpi="68.82">
  <defs
     id="defs4">
    <clipPath
       clipPathUnits="userSpaceOnUse"
       id="clipPath3165">
      <path
         style="fill:#ff2a2a;fill-opacity:1;stroke:none"
         d="m 127.14286,774.50504 89.64285,-0.53572 0,172.50001 -89.64285,0.53571 z"
         id="path3167"
         inkscape:connector-curvature="0"
         sodipodi:nodetypes="ccccc" />
    </clipPath>
    <clipPath
       clipPathUnits="userSpaceOnUse"
       id="clipPath3539">
      <rect
         style="fill:#ff2a2a;fill-opacity:1;stroke:none"
         id="rect3541"
         width="99.285713"
         height="141.42857"
         x="79.64286"
         y="748.07648" />
    </clipPath>
    <linearGradient
       x1="248.07001"
       y1="224.94"
       gradientTransform="matrix(1.6732,0,0,1.1476,-203.14,-178.37)"
       x2="230.58"
       gradientUnits="userSpaceOnUse"
       y2="244.74001"
       id="linearGradient9495">
      <stop
         offset="0"
         stop-color="#ff2a26"
         id="stop7092" />
      <stop
         offset="1"
         stop-color="#96000d"
         id="stop7094" />
    </linearGradient>
  </defs>
  <sodipodi:namedview
     id="base"
     pagecolor="#000000"
     bordercolor="#666666"
     borderopacity="1.0"
     inkscape:pageopacity="0"
     inkscape:pageshadow="2"
     inkscape:zoom="8"
     inkscape:cx="56.843893"
     inkscape:cy="38.723898"
     inkscape:document-units="px"
     inkscape:current-layer="layer1"
     showgrid="true"
     inkscape:window-width="1600"
     inkscape:window-height="834"
     inkscape:window-x="0"
     inkscape:window-y="27"
     inkscape:window-maximized="1"
     inkscape:snap-global="false"
     fit-margin-top="0"
     fit-margin-left="0"
     fit-margin-right="0"
     fit-margin-bottom="0"
     showguides="true"
     inkscape:guide-bbox="true">
    <inkscape:grid
       type="xygrid"
       id="grid2990"
       empspacing="5"
       visible="true"
       enabled="true"
       snapvisiblegridlinesonly="true"
       originx="-239.66326px"
       originy="-190.68714px" />
    <sodipodi:guide
       orientation="0,1"
       position="28.140625,34.53125"
       id="guide3938" />
    <sodipodi:guide
       orientation="1,0"
       position="97.037034,25.823383"
       id="guide3940" />
    <sodipodi:guide
       orientation="1,0"
       position="101.14669,25.749777"
       id="guide3942" />
    <sodipodi:guide
       orientation="1,0"
       position="25.208189,30.5517"
       id="guide4098" />
    <sodipodi:guide
       orientation="1,0"
       position="29.82304,29.354615"
       id="guide4100" />
    <sodipodi:guide
       orientation="0,1"
       position="28.105482,30.013879"
       id="guide4102" />
  </sodipodi:namedview>
  <metadata
     id="metadata7">
    <rdf:RDF>
      <cc:Work
         rdf:about="">
        <dc:format>image/svg+xml</dc:format>
        <dc:type
           rdf:resource="http://purl.org/dc/dcmitype/StillImage" />
        <dc:title />
      </cc:Work>
    </rdf:RDF>
  </metadata>
  <g
     inkscape:label="Layer 1"
     inkscape:groupmode="layer"
     id="layer1"
     transform="translate(-239.66326,-719.69095)">
    <flowRoot
       xml:space="preserve"
       id="flowRoot3841"
       style="font-size:28px;font-style:normal;font-variant:normal;font-weight:normal;font-stretch:normal;line-height:125%;letter-spacing:0px;word-spacing:0px;fill:#000000;fill-opacity:1;stroke:none;font-family:Sans;-inkscape-font-specification:Sans"
       transform="translate(0,902.36218)"><flowRegion
         id="flowRegion3843"><rect
           id="rect3845"
           width="147.07822"
           height="100.40916"
           x="58.689861"
           y="53.833477"
           style="font-style:normal;font-variant:normal;font-weight:normal;font-stretch:normal;font-family:Sans;-inkscape-font-specification:Sans" /></flowRegion><flowPara
         id="flowPara3847"
         style="font-style:normal;font-variant:normal;font-weight:normal;font-stretch:normal;font-family:Standard Symbols L;-inkscape-font-specification:Standard Symbols L" /></flowRoot>    <flowRoot
       xml:space="preserve"
       id="flowRoot3857"
       style="font-size:28px;font-style:normal;font-variant:normal;font-weight:normal;font-stretch:normal;line-height:125%;letter-spacing:0px;word-spacing:0px;fill:#000000;fill-opacity:1;stroke:none;font-family:Open Sans;-inkscape-font-specification:Open Sans"
       transform="translate(0,902.36218)"><flowRegion
         id="flowRegion3859"><rect
           id="rect3861"
           width="53.386562"
           height="44.194176"
           x="62.048618"
           y="54.363808" /></flowRegion><flowPara
         id="flowPara3863">⇌↮</flowPara></flowRoot>    <text
       xml:space="preserve"
       style="font-size:28px;font-style:normal;font-variant:normal;font-weight:normal;font-stretch:normal;line-height:125%;letter-spacing:0px;word-spacing:0px;fill:#000000;fill-opacity:1;stroke:none;font-family:Nimbus Mono L;-inkscape-font-specification:Nimbus Mono L"
       x="68.942909"
       y="64.440079"
       id="text3865"
       sodipodi:linespacing="125%"
       transform="translate(0,902.36218)"><tspan
         sodipodi:role="line"
         id="tspan3867"
         x="68.942909"
         y="64.440079" /></text>
    <rect
       style="fill:#954747;fill-opacity:1;stroke:none"
       id="rect2999"
       width="85"
       height="85"
       x="262.57828"
       y="719.69098" />
    <text
       xml:space="preserve"
       style="font-size:60px;font-style:normal;font-variant:normal;font-weight:normal;font-stretch:normal;line-height:125%;letter-spacing:0px;word-spacing:0px;fill:#ffffff;fill-opacity:1;stroke:none;font-family:Constantia;-inkscape-font-specification:Constantia"
       x="279.94156"
       y="781.58551"
       id="text3885"
       sodipodi:linespacing="125%"><tspan
         sodipodi:role="line"
         id="tspan3887"
         x="279.94156"
         y="781.58551">⥋</tspan></text>
    <path
       inkscape:connector-curvature="0"
       style="font-size:48px;font-style:normal;font-variant:normal;font-weight:bold;font-stretch:normal;line-height:125%;letter-spacing:0px;word-spacing:0px;fill:#eeeeee;fill-opacity:1;stroke:none;font-family:Casper;-inkscape-font-specification:Casper Bold"
       id="path4043"
       d="m 243.79126,845.78704 0,11.424 c 0.70399,0.32001 1.47199,0.56 2.304,0.72 0.83199,0.128 1.66399,0.192 2.496,0.192 0.70399,0 1.37599,-0.048 2.016,-0.144 0.67199,-0.096 1.29598,-0.272 1.872,-0.528 0.70398,-0.28799 1.29598,-0.68799 1.776,-1.2 0.47998,-0.54399 0.84798,-1.15199 1.104,-1.824 0.25598,-0.67199 0.43198,-1.37599 0.528,-2.112 0.12798,-0.76799 0.19198,-1.50399 0.192,-2.208 l 0,-1.632 c -2e-5,-1.05598 -0.064,-1.99998 -0.192,-2.832 -0.096,-0.83198 -0.28802,-1.56798 -0.576,-2.208 -0.38402,-0.86398 -0.99202,-1.58398 -1.824,-2.16 -0.80002,-0.60798 -1.71202,-0.91198 -2.736,-0.912 -0.96001,2e-5 -1.84001,0.14402 -2.64,0.432 -0.76801,0.28802 -1.44001,0.68802 -2.016,1.2 -0.57601,0.48002 -1.05601,1.05602 -1.44,1.728 -0.38401,0.64002 -0.67201,1.32802 -0.864,2.064 m 0.048,-5.712 0.288,0 c 0.99199,-1.21598 2.04799,-2.06398 3.168,-2.544 1.11999,-0.47997 2.27199,-0.71997 3.456,-0.72 1.53598,3e-5 3.02398,0.41603 4.464,1.248 1.47198,0.83202 2.63998,2.01602 3.504,3.552 0.60798,1.05602 1.00798,2.17602 1.2,3.36 0.19198,1.15202 0.28798,2.41602 0.288,3.792 l 0,1.104 c -2e-5,4.06401 -0.96002,7.05601 -2.88,8.976 -1.92002,1.888 -4.84802,2.832 -8.784,2.832 -1.63201,0 -3.20001,-0.16 -4.704,-0.48 -1.50401,-0.288 -2.896,-0.704 -4.176,-1.248 l 0,-31.632 4.128,-1.152 0.048,12.912" />
    <path
       inkscape:connector-curvature="0"
       style="font-size:48px;font-style:normal;font-variant:normal;font-weight:bold;font-stretch:normal;line-height:125%;letter-spacing:0px;word-spacing:0px;fill:#eeeeee;fill-opacity:1;stroke:none;font-family:Casper;-inkscape-font-specification:Casper Bold"
       d="m 265.17001,861.09904 0,-24.192 4.128,0 0,24.192 -4.128,0"
       id="path4069" />
    <path
       inkscape:connector-curvature="0"
       style="font-size:48px;font-style:normal;font-variant:normal;font-weight:bold;font-stretch:normal;line-height:125%;letter-spacing:0px;word-spacing:0px;fill:#47955a;fill-opacity:1;stroke:none;font-family:Casper;-inkscape-font-specification:Casper Bold"
       d="m 267.18601,827.16304 c 0.63999,4e-5 1.18399,0.22404 1.632,0.672 0.44799,0.41603 0.67199,0.94403 0.672,1.584 -10e-6,0.64003 -0.22401,1.18403 -0.672,1.632 -0.44801,0.41603 -0.99201,0.62403 -1.632,0.624 -0.64,3e-5 -1.184,-0.20797 -1.632,-0.624 -0.448,-0.44797 -0.672,-0.99197 -0.672,-1.632 0,-0.63997 0.224,-1.16797 0.672,-1.584 0.448,-0.44796 0.992,-0.67196 1.632,-0.672"
       id="path4045" />
    <path
       inkscape:connector-curvature="0"
       style="font-size:48px;font-style:normal;font-variant:normal;font-weight:bold;font-stretch:normal;line-height:125%;letter-spacing:0px;word-spacing:0px;fill:#eeeeee;fill-opacity:1;stroke:none;font-family:Casper;-inkscape-font-specification:Casper Bold"
       id="path4047"
       d="m 275.83201,840.12304 -2.736,0 0,-3.216 2.736,0 0,-5.184 4.128,-1.152 0,6.336 4.416,0 -1.008,3.216 -3.408,0 0,15.12 c -1e-5,1.92001 0.99199,2.88 2.976,2.88 l 1.776,0 0,3.024 c -0.54401,0.192 -1.02401,0.32 -1.44,0.384 -0.38401,0.096 -0.80001,0.144 -1.248,0.144 -0.86401,0 -1.69601,-0.144 -2.496,-0.432 -0.76801,-0.256 -1.44001,-0.656 -2.016,-1.2 -0.57601,-0.544 -1.008,-1.216 -1.296,-2.016 -0.256,-0.83199 -0.384,-1.75999 -0.384,-2.784 l 0,-15.12" />
    <path
       inkscape:connector-curvature="0"
       style="font-size:48px;font-style:normal;font-variant:normal;font-weight:bold;font-stretch:normal;line-height:125%;letter-spacing:0px;word-spacing:0px;fill:#eeeeee;fill-opacity:1;stroke:none;font-family:Casper;-inkscape-font-specification:Casper Bold"
       id="path4049"
       d="m 297.77101,836.33104 c 1.53599,3e-5 3.02398,0.30403 4.464,0.912 1.43998,0.60802 2.67198,1.47202 3.696,2.592 l -2.496,2.448 c -0.54402,-0.57598 -1.26402,-1.11998 -2.16,-1.632 -0.89601,-0.51198 -2.09601,-0.76798 -3.6,-0.768 -0.51201,2e-5 -1.07201,0.048 -1.68,0.144 -0.57601,0.064 -1.13601,0.22402 -1.68,0.48 -0.51201,0.22402 -0.94401,0.56002 -1.296,1.008 -0.35201,0.44802 -0.52801,1.02402 -0.528,1.728 -1e-5,0.80002 0.35199,1.42402 1.056,1.872 0.73599,0.41602 1.64799,0.80002 2.736,1.152 1.08799,0.32002 2.25599,0.64002 3.504,0.96 1.24798,0.28802 2.41598,0.68801 3.504,1.2 1.08798,0.48001 1.98398,1.13601 2.688,1.968 0.73598,0.80001 1.10398,1.87201 1.104,3.216 -2e-5,2.49601 -0.81602,4.464 -2.448,5.904 -1.63202,1.44 -4.03201,2.16 -7.2,2.16 -2.40001,0 -4.41601,-0.4 -6.048,-1.2 -1.632,-0.832 -2.944,-2.128 -3.936,-3.888 l 2.976,-1.872 c 0.41599,0.48001 0.84799,0.92801 1.296,1.344 0.44799,0.41601 0.94399,0.78401 1.488,1.104 0.54399,0.28801 1.16799,0.528 1.872,0.72 0.73599,0.16 1.59999,0.24 2.592,0.24 0.51199,0 1.07199,-0.048 1.68,-0.144 0.63999,-0.096 1.21599,-0.288 1.728,-0.576 0.54398,-0.28799 0.99198,-0.68799 1.344,-1.2 0.35198,-0.51199 0.52798,-1.16799 0.528,-1.968 -2e-5,-0.95999 -0.36802,-1.67999 -1.104,-2.16 -0.70402,-0.47999 -1.60001,-0.86399 -2.688,-1.152 -1.05601,-0.31999 -2.20801,-0.60799 -3.456,-0.864 -1.24801,-0.25599 -2.41601,-0.63999 -3.504,-1.152 -1.05601,-0.51199 -1.952,-1.21599 -2.688,-2.112 -0.704,-0.92798 -1.056,-2.19198 -1.056,-3.792 0,-1.24798 0.304,-2.28798 0.912,-3.12 0.608,-0.86398 1.35999,-1.55198 2.256,-2.064 0.92799,-0.54397 1.93599,-0.92797 3.024,-1.152 1.08799,-0.22397 2.12799,-0.33597 3.12,-0.336" />
    <path
       inkscape:connector-curvature="0"
       style="font-size:48px;font-style:normal;font-variant:normal;font-weight:bold;font-stretch:normal;line-height:125%;letter-spacing:0px;word-spacing:0px;fill:#eeeeee;fill-opacity:1;stroke:none;font-family:Casper;-inkscape-font-specification:Casper Bold"
       id="path4051"
       d="m 322.60951,836.90704 c 1.34398,3e-5 2.55998,0.22403 3.648,0.672 1.08798,0.44802 2.01598,1.08802 2.784,1.92 0.79998,0.83202 1.39198,1.80802 1.776,2.928 0.38398,1.08802 0.57598,2.27202 0.576,3.552 l 0,15.12 -4.128,0 0,-14.976 c -2e-5,-1.72798 -0.41602,-3.10398 -1.248,-4.128 -0.83202,-1.02398 -2.01602,-1.53598 -3.552,-1.536 -1.95201,2e-5 -3.47201,0.49602 -4.56,1.488 -1.05601,0.96002 -1.77601,2.17602 -2.16,3.648 l 0,15.504 -4.128,0 0,-32.784 4.128,-1.152 0,12.72 c 0.99199,-1.11998 2.11199,-1.90398 3.36,-2.352 1.27999,-0.44797 2.44799,-0.65597 3.504,-0.624" />
    <path
       inkscape:connector-curvature="0"
       style="font-size:48px;font-style:normal;font-variant:normal;font-weight:bold;font-stretch:normal;line-height:125%;letter-spacing:0px;word-spacing:0px;fill:#eeeeee;fill-opacity:1;stroke:none;font-family:Casper;-inkscape-font-specification:Casper Bold"
       d="m 336.70126,861.09904 0,-24.192 4.128,0 0,24.192 -4.128,0"
       id="path4093" />
    <path
       inkscape:connector-curvature="0"
       style="font-size:48px;font-style:normal;font-variant:normal;font-weight:bold;font-stretch:normal;line-height:125%;letter-spacing:0px;word-spacing:0px;fill:#47955a;fill-opacity:1;stroke:none;font-family:Casper;-inkscape-font-specification:Casper Bold"
       d="m 338.71726,827.16304 c 0.63999,4e-5 1.18399,0.22404 1.632,0.672 0.44799,0.41603 0.67199,0.94403 0.672,1.584 -10e-6,0.64003 -0.22401,1.18403 -0.672,1.632 -0.44801,0.41603 -0.99201,0.62403 -1.632,0.624 -0.64,3e-5 -1.184,-0.20797 -1.632,-0.624 -0.448,-0.44797 -0.672,-0.99197 -0.672,-1.632 0,-0.63997 0.224,-1.16797 0.672,-1.584 0.448,-0.44796 0.992,-0.67196 1.632,-0.672"
       id="path4053" />
    <path
       inkscape:connector-curvature="0"
       style="font-size:48px;font-style:normal;font-variant:normal;font-weight:bold;font-stretch:normal;line-height:125%;letter-spacing:0px;word-spacing:0px;fill:#eeeeee;fill-opacity:1;stroke:none;font-family:Casper;-inkscape-font-specification:Casper Bold"
       id="path4055"
       d="m 347.21926,833.64304 c 0,-0.89597 0.16,-1.74397 0.48,-2.544 0.32,-0.79997 0.75199,-1.48797 1.296,-2.064 0.57599,-0.57597 1.23199,-1.02397 1.968,-1.344 0.76799,-0.35196 1.58399,-0.52796 2.448,-0.528 0.44799,4e-5 0.97599,0.048 1.584,0.144 0.63999,0.096 1.23199,0.24004 1.776,0.432 l 0,3.024 -2.448,0 c -1.98401,3e-5 -2.97601,0.96003 -2.976,2.88 l 0,3.264 5.184,0 -1.008,3.216 -4.176,0 0,20.976 -4.128,0 0,-20.976 -3.024,0 0,-3.216 3.024,0 0,-3.264" />
    <path
       inkscape:connector-curvature="0"
       style="font-size:48px;font-style:normal;font-variant:normal;font-weight:bold;font-stretch:normal;line-height:125%;letter-spacing:0px;word-spacing:0px;fill:#eeeeee;fill-opacity:1;stroke:none;font-family:Casper;-inkscape-font-specification:Casper Bold"
       id="path4057"
       d="m 361.61326,840.12304 -2.736,0 0,-3.216 2.736,0 0,-5.184 4.128,-1.152 0,6.336 4.416,0 -1.008,3.216 -3.408,0 0,15.12 c -1e-5,1.92001 0.99199,2.88 2.976,2.88 l 1.776,0 0,3.024 c -0.54401,0.192 -1.02401,0.32 -1.44,0.384 -0.38401,0.096 -0.80001,0.144 -1.248,0.144 -0.86401,0 -1.69601,-0.144 -2.496,-0.432 -0.76801,-0.256 -1.44001,-0.656 -2.016,-1.2 -0.57601,-0.544 -1.008,-1.216 -1.296,-2.016 -0.256,-0.83199 -0.384,-1.75999 -0.384,-2.784 l 0,-15.12" />
    <rect
       style="fill:#954747;fill-opacity:1;stroke:none"
       id="rect3031"
       width="6"
       height="6"
       x="264.22131"
       y="826.46185" />
    <rect
       style="fill:#954747;fill-opacity:1;stroke:none"
       id="rect3031-9"
       width="6"
       height="6"
       x="335.70953"
       y="826.38086" />
  </g>
</svg>
